<mxfile host="app.diagrams.net" modified="2023-07-28T13:04:14.689Z" agent="Mozilla/5.0 (Windows NT 10.0; Win64; x64) AppleWebKit/537.36 (KHTML, like Gecko) Chrome/113.0.0.0 Safari/537.36" version="21.6.5" etag="oYwg8st6hhtqSqjsG7DX" type="github">
  <diagram name="第 1 页" id="GnkSj-LzNojJqpakPW1N">
    <mxGraphModel>
      <root>
        <mxCell id="0" />
        <mxCell id="1" parent="0" />
      </root>
    </mxGraphModel>
  </diagram>
</mxfile>
